<svg xmlns="http://www.w3.org/2000/svg" viewBox="0 0 280 220" fill="none">
  <rect width="280" height="220" rx="32" fill="#0f172a"/>
  <path d="M40 176c0-58 48-104 108-104s108 46 108 104H40Z" fill="#22c55e" opacity="0.14"/>
  <path d="M120 84c0-16 14-30 30-30s30 14 30 30-14 30-30 30-30-14-30-30Z" fill="#4ade80" opacity="0.9"/>
  <path d="M170 106c0 16-12 28-27 28s-27-12-27-28 12-28 27-28 27 12 27 28Z" fill="#0f172a"/>
  <path d="M87 136l18 34h90l18-34H87Z" fill="#ffffff" opacity="0.9"/>
  <path d="M104 172h72v4a8 8 0 0 1-8 8h-56a8 8 0 0 1-8-8v-4Z" fill="#0f172a" opacity="0.8"/>
</svg>