<svg xmlns="http://www.w3.org/2000/svg" viewBox="0 0 280 220" fill="none">
  <rect width="280" height="220" rx="32" fill="#0f172a"/>
  <circle cx="140" cy="90" r="68" fill="#f59e0b" opacity="0.12"/>
  <path d="M94 78c0-18 14-32 32-32s32 14 32 32-14 32-32 32-32-14-32-32Z" fill="#f97316"/>
  <path d="M118 102c-4-8-2-17 6-21 7-4 16-2 20 5 4 6 2 14-3 18-5 4-14 4-18-2Z" fill="#ffffff"/>
  <path d="M92 144h96a8 8 0 0 0 8-8v-14a8 8 0 0 0-8-8H92a8 8 0 0 0-8 8v14a8 8 0 0 0 8 8Z" fill="#0f172a" opacity="0.8"/>
</svg>