<svg xmlns="http://www.w3.org/2000/svg" viewBox="0 0 400 320" fill="none">
  <rect width="400" height="320" rx="48" fill="#111827"/>
  <rect x="32" y="40" width="336" height="240" rx="32" fill="#0f172a"/>
  <circle cx="200" cy="150" r="92" fill="#facc15" opacity="0.15"/>
  <path d="M102 172c0-42 34-76 76-76s76 34 76 76-34 76-76 76-76-34-76-76Z" fill="#f97316"/>
  <path d="M130 156c8-14 24-22 38-18 18 5 26 22 34 36 8 13 22 18 35 12 14-6 19-22 18-36-1-17-15-32-31-34-16-2-26 6-40 10-13 4-26 0-35 9-9 9-8 24 1 34Z" fill="#ffffff" opacity="0.95"/>
  <path d="M180 152c0 12-9 22-21 22s-21-10-21-22 9-22 21-22 21 10 21 22Z" fill="#0f172a"/>
  <path d="M224 148c-8 0-14 7-14 15s6 15 14 15 14-7 14-15-6-15-14-15Z" fill="#0f172a"/>
  <path d="M70 240c20 0 260-12 260-12v12H70Z" fill="#ffffff" opacity="0.06"/>
</svg>