<svg xmlns="http://www.w3.org/2000/svg" viewBox="0 0 280 220" fill="none">
  <rect width="280" height="220" rx="32" fill="#111827"/>
  <path d="M56 144c0-28 22-52 50-52s50 24 50 52-22 52-50 52-50-24-50-52Z" fill="#f59e0b" opacity="0.16"/>
  <path d="M90 134c6-8 18-12 32-10 18 2 30 16 36 28 8 16 18 22 30 18" stroke="#facc15" stroke-width="14" stroke-linecap="round"/>
  <path d="M68 108c14-24 42-36 70-28 26 8 44 34 44 60" stroke="#ffffff" stroke-width="18" stroke-linecap="round"/>
  <path d="M96 96c8-10 22-10 34-4 10 5 16 16 16 28" stroke="#0f172a" stroke-width="16" stroke-linecap="round"/>
  <circle cx="142" cy="148" r="8" fill="#ffffff" opacity="0.9"/>
  <circle cx="106" cy="164" r="8" fill="#ffffff" opacity="0.9"/>
</svg>