<svg xmlns="http://www.w3.org/2000/svg" viewBox="0 0 280 220" fill="none">
  <rect width="280" height="220" rx="32" fill="#0f172a"/>
  <path d="M40 86c0-24 20-44 44-44h112c24 0 44 20 44 44v56c0 24-20 44-44 44H84c-24 0-44-20-44-44V86Z" fill="#f97316" opacity="0.15"/>
  <path d="M72 102c18-14 42-16 62-4 18 11 28 32 30 54M94 122c10-8 24-10 36-4 10 5 18 15 18 26" stroke="#facc15" stroke-width="16" stroke-linecap="round"/>
  <path d="M76 150c24 12 52 14 80 6 24-8 42-28 54-52" stroke="#fef08a" stroke-width="14" stroke-linecap="round"/>
  <circle cx="108" cy="68" r="8" fill="#ffffff" opacity="0.9"/>
  <circle cx="170" cy="102" r="8" fill="#ffffff" opacity="0.9"/>
</svg>